<?xml version="1.0" encoding="iso-8859-1"?>
<!-- Generator: Adobe Illustrator 16.0.0, SVG Export Plug-In . SVG Version: 6.00 Build 0)  -->
<!DOCTYPE svg PUBLIC "-//W3C//DTD SVG 1.1//EN" "http://www.w3.org/Graphics/SVG/1.1/DTD/svg11.dtd">
<svg version="1.1" id="Capa_1" xmlns="http://www.w3.org/2000/svg" xmlns:xlink="http://www.w3.org/1999/xlink" x="0px" y="0px"
	 width="166.311px" height="166.311px" viewBox="0 0 166.311 166.311" style="enable-background:new 0 0 166.311 166.311;"
	 xml:space="preserve">
<g>
	<path d="M78.411,47.786c-1.064,1.272-2.129,0.903-2.582-0.626c-0.101-0.64-3.133-13.265-3.133-13.265L67.21,53.833
		c0,0-1.765,5.149-4.31,5.962c-5.383,1.727-33.787,1.737-43.083-4.126c-3.322-1.718,1.844-17.374,3.446-19.967
		C18.945,37.922,0,76.919,0,83.192c0,8.005,15.721,42.659,24.992,49.223c-3.958-6.929-7.87-20.035-3.448-22.448
		c5.871-3.212,17.986-6.293,27.697,9.488c2.944-4.782,17.269-24.776,34.275,12.96c11.325-30.47,24.939-25.255,32.941-11.225
		c3.25-5.615,14.247-17.802,28.315-11.224c4.328,2.759,1.861,11.939-3.447,21.593c11.863-8.931,24.985-40.941,24.985-47.497
		c0-3.994-13.248-40.698-24.121-50.082c2.722,6.459,7.76,20.367,3.442,21.703c-4.321,1.326-32.941,7.479-43.951,4.123
		c-3.106-1.01-3.168-4.69-3.447-5.962c-0.274-1.272-4.78-19.858-4.78-19.858s-2.606,11.715-2.979,12.955
		c-0.364,1.237-1.516,3.026-3.446,0.862C85.992,45.964,80.805,44.935,78.411,47.786z"/>
</g>
<g>
</g>
<g>
</g>
<g>
</g>
<g>
</g>
<g>
</g>
<g>
</g>
<g>
</g>
<g>
</g>
<g>
</g>
<g>
</g>
<g>
</g>
<g>
</g>
<g>
</g>
<g>
</g>
<g>
</g>
</svg>
